{"title":"Dark Feed 2013 DVDRiP x264 AC3-OFFLiNE","uid":8386865,"size":1610355721,"categoryP":"video","categoryS":"movies","magnet":"?xt=urn:btih:15566a3cb5f2e6a58302d66b1248d7329558b67c&amp;dn=Dark+Feed+2013+DVDRiP+x264+AC3-OFFLiNE&amp;tr=udp%3A%2F%2Ftracker.openbittorrent.com%3A80&amp;tr=udp%3A%2F%2Fopen.demonii.com%3A1337&amp;tr=udp%3A%2F%2Ftracker.coppersurfer.tk%3A6969&amp;tr=udp%3A%2F%2Fexodus.desync.com%3A6969","seeders":0,"leechers":1,"uploader":"Gh0stNet","files":3,"time":1366307637,"description":"Dark Feed 2013 DVDRiP x264 AC3-OFFLiNE\n\niMDB  &lt;a href=&quot;\nhttp://www.imdb.com/title/tt1430077&quot; rel=&quot;nofollow&quot; target=&quot;_NEW&quot;&gt;\nhttp://www.imdb.com/title/tt1430077&lt;/a&gt;\n\nSource Dark Feed 2013 DVD5 WS NTSC DVDR BabyGirl21 - MANY THANKX\n\nMedia Info\nDark Feed 2013 DVDRiP x264 AC3-OFFLiNE.mp4\nFormat: MPEG-4\nFormat profile: Base Media\nCodec ID: isom\nFile size: 1.50 GiB\nDuration: 1h 25mn\nOverall bit rate mode: Variable\nOverall bit rate: 2 498 Kbps\nEncoded date: UTC 2013-04-18 04:57:28\nTagged date: UTC 2013-04-18 04:57:28\n\nVideo\nID: 1\nFormat: AVC\nFormat/Info: Advanced Video Codec\nFormat profile: &lt;a class=&quot;__cf_email__&quot; href=&quot;/cdn-cgi/l/email-protection&quot; data-cfemail=&quot;1850717f7058542c3629&quot;&gt;[email&amp;#160;protected]&lt;/a&gt;&lt;script cf-hash='f9e31' type=&quot;text/javascript&quot;&gt;\n/* &lt;![CDATA[ */!function(){try{var t=&quot;currentScript&quot;in document?document.currentScript:function(){for(var t=document.getElementsByTagName(&quot;script&quot;),e=t.length;e--;)if(t[e].getAttribute(&quot;cf-hash&quot;))return t[e]}();if(t&amp;&amp;t.previousSibling){var e,r,n,i,c=t.previousSibling,a=c.getAttribute(&quot;data-cfemail&quot;);if(a){for(e=&quot;&quot;,r=parseInt(a.substr(0,2),16),n=2;a.length-n;n+=2)i=parseInt(a.substr(n,2),16)^r,e+=String.fromCharCode(i);e=document.createTextNode(e),c.parentNode.replaceChild(e,c)}}}catch(u){}}();/* ]]&gt; */&lt;/script&gt;\nFormat settings, CABAC: Yes\nFormat settings, ReFrames: 3 frames\nCodec ID: avc1\nCodec ID/Info: Advanced Video Coding\nDuration: 1h 25mn\nBit rate mode: Variable\nBit rate: 2 112 Kbps\nMaximum bit rate: 40.0 Mbps\nWidth: 720 pixels\nHeight: 400 pixels\nDisplay aspect ratio: 16:9\nFrame rate mode: Constant\nFrame rate: 23.976 fps\nColor space: YUV\nChroma subsampling: 4:2:0\nBit depth: 8 bits\nScan type: Progressive\nBits/(Pixel*Frame): 0.306\nStream size: 1.27 GiB (85%)\nTitle: Dark Feed 2013 DVDRiP x264 AC3-OFFLiNE\nWriting library: x264 core 130 r2273 b3065e6\n\nAudio\nID: 2\nFormat: AC-3\nFormat/Info: Audio Coding 3\nMode extension: CM (complete main)\nFormat settings, Endianness: Big\nCodec ID: ac-3\nDuration: 1h 25mn\nBit rate mode: Constant\nBit rate: 384 Kbps\nChannel(s): 6 channels\nChannel positions: Front: L C R, Side: L R, LFE\nSampling rate: 48.0 KHz\nBit depth: 16 bits\nCompression mode: Lossy\nStream size: 236 MiB (15%)\nTitle: 5.1\nLanguage: English\n","torrent":{"xt":"urn:btih:15566a3cb5f2e6a58302d66b1248d7329558b67c","amp;dn":"Dark+Feed+2013+DVDRiP+x264+AC3-OFFLiNE","amp;tr":["udp%3A%2F%2Ftracker.openbittorrent.com%3A80","udp%3A%2F%2Fopen.demonii.com%3A1337","udp%3A%2F%2Ftracker.coppersurfer.tk%3A6969","udp%3A%2F%2Fexodus.desync.com%3A6969"],"infoHash":"15566a3cb5f2e6a58302d66b1248d7329558b67c","infoHashBuffer":{"type":"Buffer","data":[21,86,106,60,181,242,230,165,131,2,214,107,18,72,215,50,149,88,182,124]},"announce":[],"urlList":[]}}